<mxfile host="app.diagrams.net" agent="Mozilla/5.0 (Windows NT 10.0; Win64; x64) AppleWebKit/537.36 (KHTML, like Gecko) Chrome/128.0.0.0 Safari/537.36 OPR/114.0.0.0" version="25.0.3">
  <diagram id="C5RBs43oDa-KdzZeNtuy" name="Page-1">
    <mxGraphModel dx="2430" dy="674" grid="1" gridSize="10" guides="1" tooltips="1" connect="1" arrows="1" fold="1" page="1" pageScale="1" pageWidth="1169" pageHeight="827" math="0" shadow="0">
      <root>
        <mxCell id="WIyWlLk6GJQsqaUBKTNV-0" />
        <mxCell id="WIyWlLk6GJQsqaUBKTNV-1" parent="WIyWlLk6GJQsqaUBKTNV-0" />
        <mxCell id="k1QMkolN6IlTNRxzYxFX-5" value="" style="edgeStyle=orthogonalEdgeStyle;rounded=0;orthogonalLoop=1;jettySize=auto;html=1;" edge="1" parent="WIyWlLk6GJQsqaUBKTNV-1" source="k1QMkolN6IlTNRxzYxFX-0" target="k1QMkolN6IlTNRxzYxFX-1">
          <mxGeometry relative="1" as="geometry" />
        </mxCell>
        <mxCell id="k1QMkolN6IlTNRxzYxFX-0" value="Game start" style="rounded=1;whiteSpace=wrap;html=1;" vertex="1" parent="WIyWlLk6GJQsqaUBKTNV-1">
          <mxGeometry y="200" width="80" height="40" as="geometry" />
        </mxCell>
        <mxCell id="k1QMkolN6IlTNRxzYxFX-11" value="" style="edgeStyle=orthogonalEdgeStyle;rounded=0;orthogonalLoop=1;jettySize=auto;html=1;" edge="1" parent="WIyWlLk6GJQsqaUBKTNV-1" source="k1QMkolN6IlTNRxzYxFX-1" target="k1QMkolN6IlTNRxzYxFX-10">
          <mxGeometry relative="1" as="geometry" />
        </mxCell>
        <mxCell id="k1QMkolN6IlTNRxzYxFX-1" value="Laboratory" style="shape=hexagon;perimeter=hexagonPerimeter2;whiteSpace=wrap;html=1;fixedSize=1;" vertex="1" parent="WIyWlLk6GJQsqaUBKTNV-1">
          <mxGeometry x="120" y="200" width="130" height="50" as="geometry" />
        </mxCell>
        <mxCell id="k1QMkolN6IlTNRxzYxFX-12" style="edgeStyle=orthogonalEdgeStyle;rounded=0;orthogonalLoop=1;jettySize=auto;html=1;exitX=1;exitY=0.5;exitDx=0;exitDy=0;entryX=0.5;entryY=1;entryDx=0;entryDy=0;" edge="1" parent="WIyWlLk6GJQsqaUBKTNV-1" source="k1QMkolN6IlTNRxzYxFX-6" target="k1QMkolN6IlTNRxzYxFX-10">
          <mxGeometry relative="1" as="geometry" />
        </mxCell>
        <mxCell id="k1QMkolN6IlTNRxzYxFX-13" style="edgeStyle=orthogonalEdgeStyle;rounded=0;orthogonalLoop=1;jettySize=auto;html=1;exitX=0;exitY=0.5;exitDx=0;exitDy=0;entryX=0.5;entryY=1;entryDx=0;entryDy=0;" edge="1" parent="WIyWlLk6GJQsqaUBKTNV-1" source="k1QMkolN6IlTNRxzYxFX-6" target="k1QMkolN6IlTNRxzYxFX-1">
          <mxGeometry relative="1" as="geometry" />
        </mxCell>
        <mxCell id="k1QMkolN6IlTNRxzYxFX-6" value="Tutorial" style="rounded=1;whiteSpace=wrap;html=1;" vertex="1" parent="WIyWlLk6GJQsqaUBKTNV-1">
          <mxGeometry x="220" y="262.5" width="95" height="30" as="geometry" />
        </mxCell>
        <mxCell id="k1QMkolN6IlTNRxzYxFX-9" value="" style="edgeStyle=orthogonalEdgeStyle;rounded=0;orthogonalLoop=1;jettySize=auto;html=1;" edge="1" parent="WIyWlLk6GJQsqaUBKTNV-1" source="k1QMkolN6IlTNRxzYxFX-8" target="k1QMkolN6IlTNRxzYxFX-1">
          <mxGeometry relative="1" as="geometry" />
        </mxCell>
        <mxCell id="k1QMkolN6IlTNRxzYxFX-8" value="Take and use key to unlock the door" style="rounded=0;whiteSpace=wrap;html=1;" vertex="1" parent="WIyWlLk6GJQsqaUBKTNV-1">
          <mxGeometry x="135" y="120" width="100" height="45" as="geometry" />
        </mxCell>
        <mxCell id="k1QMkolN6IlTNRxzYxFX-17" value="" style="edgeStyle=orthogonalEdgeStyle;rounded=0;orthogonalLoop=1;jettySize=auto;html=1;" edge="1" parent="WIyWlLk6GJQsqaUBKTNV-1" source="k1QMkolN6IlTNRxzYxFX-10" target="k1QMkolN6IlTNRxzYxFX-14">
          <mxGeometry relative="1" as="geometry" />
        </mxCell>
        <mxCell id="k1QMkolN6IlTNRxzYxFX-10" value="Shore" style="shape=hexagon;perimeter=hexagonPerimeter2;whiteSpace=wrap;html=1;fixedSize=1;" vertex="1" parent="WIyWlLk6GJQsqaUBKTNV-1">
          <mxGeometry x="290" y="198.75" width="130" height="52.5" as="geometry" />
        </mxCell>
        <mxCell id="k1QMkolN6IlTNRxzYxFX-19" value="" style="edgeStyle=orthogonalEdgeStyle;rounded=0;orthogonalLoop=1;jettySize=auto;html=1;" edge="1" parent="WIyWlLk6GJQsqaUBKTNV-1" source="k1QMkolN6IlTNRxzYxFX-14" target="k1QMkolN6IlTNRxzYxFX-18">
          <mxGeometry relative="1" as="geometry" />
        </mxCell>
        <mxCell id="k1QMkolN6IlTNRxzYxFX-14" value="Dialogue with John fish&amp;nbsp;" style="rounded=0;whiteSpace=wrap;html=1;" vertex="1" parent="WIyWlLk6GJQsqaUBKTNV-1">
          <mxGeometry x="460" y="202.5" width="140" height="45" as="geometry" />
        </mxCell>
        <mxCell id="k1QMkolN6IlTNRxzYxFX-21" value="" style="edgeStyle=orthogonalEdgeStyle;rounded=0;orthogonalLoop=1;jettySize=auto;html=1;" edge="1" parent="WIyWlLk6GJQsqaUBKTNV-1" source="k1QMkolN6IlTNRxzYxFX-18" target="k1QMkolN6IlTNRxzYxFX-20">
          <mxGeometry relative="1" as="geometry" />
        </mxCell>
        <mxCell id="k1QMkolN6IlTNRxzYxFX-18" value="Fight with strange bottle" style="whiteSpace=wrap;html=1;rounded=0;" vertex="1" parent="WIyWlLk6GJQsqaUBKTNV-1">
          <mxGeometry x="640" y="195" width="120" height="60" as="geometry" />
        </mxCell>
        <mxCell id="k1QMkolN6IlTNRxzYxFX-23" value="" style="edgeStyle=orthogonalEdgeStyle;rounded=0;orthogonalLoop=1;jettySize=auto;html=1;" edge="1" parent="WIyWlLk6GJQsqaUBKTNV-1" source="k1QMkolN6IlTNRxzYxFX-20" target="k1QMkolN6IlTNRxzYxFX-22">
          <mxGeometry relative="1" as="geometry" />
        </mxCell>
        <mxCell id="k1QMkolN6IlTNRxzYxFX-27" value="" style="edgeStyle=orthogonalEdgeStyle;rounded=0;orthogonalLoop=1;jettySize=auto;html=1;" edge="1" parent="WIyWlLk6GJQsqaUBKTNV-1" source="k1QMkolN6IlTNRxzYxFX-20" target="k1QMkolN6IlTNRxzYxFX-26">
          <mxGeometry relative="1" as="geometry" />
        </mxCell>
        <mxCell id="k1QMkolN6IlTNRxzYxFX-42" value="" style="edgeStyle=orthogonalEdgeStyle;rounded=0;orthogonalLoop=1;jettySize=auto;html=1;" edge="1" parent="WIyWlLk6GJQsqaUBKTNV-1" source="k1QMkolN6IlTNRxzYxFX-20" target="k1QMkolN6IlTNRxzYxFX-41">
          <mxGeometry relative="1" as="geometry" />
        </mxCell>
        <mxCell id="k1QMkolN6IlTNRxzYxFX-20" value="Hub Location" style="shape=hexagon;perimeter=hexagonPerimeter2;whiteSpace=wrap;html=1;fixedSize=1;rounded=0;" vertex="1" parent="WIyWlLk6GJQsqaUBKTNV-1">
          <mxGeometry x="820" y="192.5" width="120" height="65" as="geometry" />
        </mxCell>
        <mxCell id="k1QMkolN6IlTNRxzYxFX-25" value="" style="edgeStyle=orthogonalEdgeStyle;rounded=0;orthogonalLoop=1;jettySize=auto;html=1;" edge="1" parent="WIyWlLk6GJQsqaUBKTNV-1" source="k1QMkolN6IlTNRxzYxFX-22" target="k1QMkolN6IlTNRxzYxFX-24">
          <mxGeometry relative="1" as="geometry" />
        </mxCell>
        <mxCell id="k1QMkolN6IlTNRxzYxFX-31" value="" style="edgeStyle=orthogonalEdgeStyle;rounded=0;orthogonalLoop=1;jettySize=auto;html=1;" edge="1" parent="WIyWlLk6GJQsqaUBKTNV-1" source="k1QMkolN6IlTNRxzYxFX-22" target="k1QMkolN6IlTNRxzYxFX-30">
          <mxGeometry relative="1" as="geometry" />
        </mxCell>
        <mxCell id="k1QMkolN6IlTNRxzYxFX-22" value="The Hermit crab" style="whiteSpace=wrap;html=1;rounded=0;" vertex="1" parent="WIyWlLk6GJQsqaUBKTNV-1">
          <mxGeometry x="980" y="195" width="120" height="60" as="geometry" />
        </mxCell>
        <mxCell id="k1QMkolN6IlTNRxzYxFX-24" value="In-game Shop" style="whiteSpace=wrap;html=1;rounded=0;" vertex="1" parent="WIyWlLk6GJQsqaUBKTNV-1">
          <mxGeometry x="980" y="110" width="120" height="45" as="geometry" />
        </mxCell>
        <mxCell id="k1QMkolN6IlTNRxzYxFX-26" value="Turtle" style="whiteSpace=wrap;html=1;rounded=0;" vertex="1" parent="WIyWlLk6GJQsqaUBKTNV-1">
          <mxGeometry x="825" y="70" width="110" height="40" as="geometry" />
        </mxCell>
        <mxCell id="k1QMkolN6IlTNRxzYxFX-34" value="" style="edgeStyle=orthogonalEdgeStyle;rounded=0;orthogonalLoop=1;jettySize=auto;html=1;" edge="1" parent="WIyWlLk6GJQsqaUBKTNV-1" source="k1QMkolN6IlTNRxzYxFX-28" target="k1QMkolN6IlTNRxzYxFX-33">
          <mxGeometry relative="1" as="geometry" />
        </mxCell>
        <mxCell id="k1QMkolN6IlTNRxzYxFX-28" value="Sunken plane" style="shape=hexagon;perimeter=hexagonPerimeter2;whiteSpace=wrap;html=1;fixedSize=1;rounded=0;" vertex="1" parent="WIyWlLk6GJQsqaUBKTNV-1">
          <mxGeometry x="980" y="370" width="120" height="80" as="geometry" />
        </mxCell>
        <mxCell id="k1QMkolN6IlTNRxzYxFX-32" value="" style="edgeStyle=orthogonalEdgeStyle;rounded=0;orthogonalLoop=1;jettySize=auto;html=1;" edge="1" parent="WIyWlLk6GJQsqaUBKTNV-1" source="k1QMkolN6IlTNRxzYxFX-30" target="k1QMkolN6IlTNRxzYxFX-28">
          <mxGeometry relative="1" as="geometry" />
        </mxCell>
        <mxCell id="k1QMkolN6IlTNRxzYxFX-30" value="crab asks you to gather trash&lt;div&gt;crab sends you to clean sunken plane&lt;/div&gt;" style="whiteSpace=wrap;html=1;rounded=0;" vertex="1" parent="WIyWlLk6GJQsqaUBKTNV-1">
          <mxGeometry x="980" y="285" width="120" height="60" as="geometry" />
        </mxCell>
        <mxCell id="k1QMkolN6IlTNRxzYxFX-36" value="" style="edgeStyle=orthogonalEdgeStyle;rounded=0;orthogonalLoop=1;jettySize=auto;html=1;" edge="1" parent="WIyWlLk6GJQsqaUBKTNV-1" source="k1QMkolN6IlTNRxzYxFX-33" target="k1QMkolN6IlTNRxzYxFX-35">
          <mxGeometry relative="1" as="geometry" />
        </mxCell>
        <mxCell id="k1QMkolN6IlTNRxzYxFX-33" value="Player cleans the room" style="whiteSpace=wrap;html=1;rounded=0;" vertex="1" parent="WIyWlLk6GJQsqaUBKTNV-1">
          <mxGeometry x="980" y="471.75" width="120" height="60" as="geometry" />
        </mxCell>
        <mxCell id="k1QMkolN6IlTNRxzYxFX-40" value="" style="edgeStyle=orthogonalEdgeStyle;rounded=0;orthogonalLoop=1;jettySize=auto;html=1;" edge="1" parent="WIyWlLk6GJQsqaUBKTNV-1" source="k1QMkolN6IlTNRxzYxFX-35" target="k1QMkolN6IlTNRxzYxFX-39">
          <mxGeometry relative="1" as="geometry" />
        </mxCell>
        <mxCell id="k1QMkolN6IlTNRxzYxFX-35" value="Waste Monster fight begins" style="whiteSpace=wrap;html=1;rounded=0;" vertex="1" parent="WIyWlLk6GJQsqaUBKTNV-1">
          <mxGeometry x="980" y="570" width="120" height="60" as="geometry" />
        </mxCell>
        <mxCell id="k1QMkolN6IlTNRxzYxFX-39" value="Graveyard" style="shape=hexagon;perimeter=hexagonPerimeter2;whiteSpace=wrap;html=1;fixedSize=1;rounded=0;" vertex="1" parent="WIyWlLk6GJQsqaUBKTNV-1">
          <mxGeometry x="980" y="650" width="120" height="40" as="geometry" />
        </mxCell>
        <mxCell id="k1QMkolN6IlTNRxzYxFX-44" value="" style="edgeStyle=orthogonalEdgeStyle;rounded=0;orthogonalLoop=1;jettySize=auto;html=1;" edge="1" parent="WIyWlLk6GJQsqaUBKTNV-1" source="k1QMkolN6IlTNRxzYxFX-41" target="k1QMkolN6IlTNRxzYxFX-43">
          <mxGeometry relative="1" as="geometry" />
        </mxCell>
        <mxCell id="k1QMkolN6IlTNRxzYxFX-41" value="Sunken Ship" style="shape=hexagon;perimeter=hexagonPerimeter2;whiteSpace=wrap;html=1;fixedSize=1;rounded=0;" vertex="1" parent="WIyWlLk6GJQsqaUBKTNV-1">
          <mxGeometry x="820" y="290" width="120" height="50" as="geometry" />
        </mxCell>
        <mxCell id="k1QMkolN6IlTNRxzYxFX-46" value="" style="edgeStyle=orthogonalEdgeStyle;rounded=0;orthogonalLoop=1;jettySize=auto;html=1;" edge="1" parent="WIyWlLk6GJQsqaUBKTNV-1" source="k1QMkolN6IlTNRxzYxFX-43" target="k1QMkolN6IlTNRxzYxFX-45">
          <mxGeometry relative="1" as="geometry" />
        </mxCell>
        <mxCell id="k1QMkolN6IlTNRxzYxFX-43" value="Fight with Oil Boss" style="whiteSpace=wrap;html=1;rounded=0;" vertex="1" parent="WIyWlLk6GJQsqaUBKTNV-1">
          <mxGeometry x="640" y="292.5" width="120" height="45" as="geometry" />
        </mxCell>
        <mxCell id="k1QMkolN6IlTNRxzYxFX-48" style="edgeStyle=orthogonalEdgeStyle;rounded=0;orthogonalLoop=1;jettySize=auto;html=1;exitX=0;exitY=0.5;exitDx=0;exitDy=0;entryX=1;entryY=0.5;entryDx=0;entryDy=0;" edge="1" parent="WIyWlLk6GJQsqaUBKTNV-1" source="k1QMkolN6IlTNRxzYxFX-45" target="k1QMkolN6IlTNRxzYxFX-47">
          <mxGeometry relative="1" as="geometry" />
        </mxCell>
        <mxCell id="k1QMkolN6IlTNRxzYxFX-45" value="Coral Reef" style="shape=hexagon;perimeter=hexagonPerimeter2;whiteSpace=wrap;html=1;fixedSize=1;rounded=0;" vertex="1" parent="WIyWlLk6GJQsqaUBKTNV-1">
          <mxGeometry x="460" y="291.25" width="140" height="47.5" as="geometry" />
        </mxCell>
        <mxCell id="k1QMkolN6IlTNRxzYxFX-50" value="" style="edgeStyle=orthogonalEdgeStyle;rounded=0;orthogonalLoop=1;jettySize=auto;html=1;" edge="1" parent="WIyWlLk6GJQsqaUBKTNV-1" source="k1QMkolN6IlTNRxzYxFX-47" target="k1QMkolN6IlTNRxzYxFX-49">
          <mxGeometry relative="1" as="geometry" />
        </mxCell>
        <mxCell id="k1QMkolN6IlTNRxzYxFX-47" value="Fight with Invasive Algae" style="rounded=0;whiteSpace=wrap;html=1;" vertex="1" parent="WIyWlLk6GJQsqaUBKTNV-1">
          <mxGeometry x="290" y="320" width="120" height="40" as="geometry" />
        </mxCell>
        <mxCell id="k1QMkolN6IlTNRxzYxFX-63" style="edgeStyle=orthogonalEdgeStyle;rounded=0;orthogonalLoop=1;jettySize=auto;html=1;exitX=0.5;exitY=0;exitDx=0;exitDy=0;entryX=1;entryY=0.5;entryDx=0;entryDy=0;" edge="1" parent="WIyWlLk6GJQsqaUBKTNV-1" source="k1QMkolN6IlTNRxzYxFX-49" target="k1QMkolN6IlTNRxzYxFX-51">
          <mxGeometry relative="1" as="geometry" />
        </mxCell>
        <mxCell id="k1QMkolN6IlTNRxzYxFX-64" style="edgeStyle=orthogonalEdgeStyle;rounded=0;orthogonalLoop=1;jettySize=auto;html=1;exitX=0;exitY=0.5;exitDx=0;exitDy=0;" edge="1" parent="WIyWlLk6GJQsqaUBKTNV-1" source="k1QMkolN6IlTNRxzYxFX-49" target="k1QMkolN6IlTNRxzYxFX-55">
          <mxGeometry relative="1" as="geometry" />
        </mxCell>
        <mxCell id="k1QMkolN6IlTNRxzYxFX-66" style="edgeStyle=orthogonalEdgeStyle;rounded=0;orthogonalLoop=1;jettySize=auto;html=1;exitX=0.625;exitY=1;exitDx=0;exitDy=0;entryX=0.5;entryY=0;entryDx=0;entryDy=0;" edge="1" parent="WIyWlLk6GJQsqaUBKTNV-1" source="k1QMkolN6IlTNRxzYxFX-49" target="k1QMkolN6IlTNRxzYxFX-67">
          <mxGeometry relative="1" as="geometry">
            <mxPoint x="300" y="460" as="targetPoint" />
          </mxGeometry>
        </mxCell>
        <mxCell id="k1QMkolN6IlTNRxzYxFX-49" value="Octopus Kingom" style="shape=hexagon;perimeter=hexagonPerimeter2;whiteSpace=wrap;html=1;fixedSize=1;rounded=0;" vertex="1" parent="WIyWlLk6GJQsqaUBKTNV-1">
          <mxGeometry x="110" y="320" width="120" height="40" as="geometry" />
        </mxCell>
        <mxCell id="k1QMkolN6IlTNRxzYxFX-51" value="Monument" style="shape=hexagon;perimeter=hexagonPerimeter2;whiteSpace=wrap;html=1;fixedSize=1;rounded=0;" vertex="1" parent="WIyWlLk6GJQsqaUBKTNV-1">
          <mxGeometry x="-30" y="270" width="110" height="40" as="geometry" />
        </mxCell>
        <mxCell id="k1QMkolN6IlTNRxzYxFX-58" value="" style="edgeStyle=orthogonalEdgeStyle;rounded=0;orthogonalLoop=1;jettySize=auto;html=1;" edge="1" parent="WIyWlLk6GJQsqaUBKTNV-1" source="k1QMkolN6IlTNRxzYxFX-55" target="k1QMkolN6IlTNRxzYxFX-57">
          <mxGeometry relative="1" as="geometry" />
        </mxCell>
        <mxCell id="k1QMkolN6IlTNRxzYxFX-55" value="Dialogue with king advisor. Quest to rescue octopus king" style="whiteSpace=wrap;html=1;rounded=0;" vertex="1" parent="WIyWlLk6GJQsqaUBKTNV-1">
          <mxGeometry x="-50" y="370" width="120" height="60" as="geometry" />
        </mxCell>
        <mxCell id="k1QMkolN6IlTNRxzYxFX-60" value="" style="edgeStyle=orthogonalEdgeStyle;rounded=0;orthogonalLoop=1;jettySize=auto;html=1;" edge="1" parent="WIyWlLk6GJQsqaUBKTNV-1" source="k1QMkolN6IlTNRxzYxFX-57" target="k1QMkolN6IlTNRxzYxFX-59">
          <mxGeometry relative="1" as="geometry" />
        </mxCell>
        <mxCell id="k1QMkolN6IlTNRxzYxFX-57" value="Vortex" style="shape=hexagon;perimeter=hexagonPerimeter2;whiteSpace=wrap;html=1;fixedSize=1;rounded=0;" vertex="1" parent="WIyWlLk6GJQsqaUBKTNV-1">
          <mxGeometry x="-50" y="466" width="120" height="50" as="geometry" />
        </mxCell>
        <mxCell id="k1QMkolN6IlTNRxzYxFX-62" value="" style="edgeStyle=orthogonalEdgeStyle;rounded=0;orthogonalLoop=1;jettySize=auto;html=1;" edge="1" parent="WIyWlLk6GJQsqaUBKTNV-1" source="k1QMkolN6IlTNRxzYxFX-59" target="k1QMkolN6IlTNRxzYxFX-61">
          <mxGeometry relative="1" as="geometry" />
        </mxCell>
        <mxCell id="k1QMkolN6IlTNRxzYxFX-59" value="Trivia about Pollution" style="whiteSpace=wrap;html=1;rounded=0;" vertex="1" parent="WIyWlLk6GJQsqaUBKTNV-1">
          <mxGeometry x="-50" y="556" width="120" height="60" as="geometry" />
        </mxCell>
        <mxCell id="k1QMkolN6IlTNRxzYxFX-65" style="edgeStyle=orthogonalEdgeStyle;rounded=0;orthogonalLoop=1;jettySize=auto;html=1;exitX=0.5;exitY=0;exitDx=0;exitDy=0;entryX=0.5;entryY=1;entryDx=0;entryDy=0;" edge="1" parent="WIyWlLk6GJQsqaUBKTNV-1" source="k1QMkolN6IlTNRxzYxFX-61" target="k1QMkolN6IlTNRxzYxFX-49">
          <mxGeometry relative="1" as="geometry" />
        </mxCell>
        <mxCell id="k1QMkolN6IlTNRxzYxFX-61" value="Return to octopus kingdom" style="whiteSpace=wrap;html=1;rounded=0;" vertex="1" parent="WIyWlLk6GJQsqaUBKTNV-1">
          <mxGeometry x="110" y="450" width="120" height="40" as="geometry" />
        </mxCell>
        <mxCell id="k1QMkolN6IlTNRxzYxFX-69" value="" style="edgeStyle=orthogonalEdgeStyle;rounded=0;orthogonalLoop=1;jettySize=auto;html=1;" edge="1" parent="WIyWlLk6GJQsqaUBKTNV-1" source="k1QMkolN6IlTNRxzYxFX-67" target="k1QMkolN6IlTNRxzYxFX-68">
          <mxGeometry relative="1" as="geometry" />
        </mxCell>
        <mxCell id="k1QMkolN6IlTNRxzYxFX-67" value="Oil Rig" style="shape=hexagon;perimeter=hexagonPerimeter2;whiteSpace=wrap;html=1;fixedSize=1;" vertex="1" parent="WIyWlLk6GJQsqaUBKTNV-1">
          <mxGeometry x="295" y="516" width="120" height="75" as="geometry" />
        </mxCell>
        <mxCell id="k1QMkolN6IlTNRxzYxFX-71" value="" style="edgeStyle=orthogonalEdgeStyle;rounded=0;orthogonalLoop=1;jettySize=auto;html=1;" edge="1" parent="WIyWlLk6GJQsqaUBKTNV-1" source="k1QMkolN6IlTNRxzYxFX-68" target="k1QMkolN6IlTNRxzYxFX-70">
          <mxGeometry relative="1" as="geometry" />
        </mxCell>
        <mxCell id="k1QMkolN6IlTNRxzYxFX-68" value="Trivia battle with CEO" style="whiteSpace=wrap;html=1;" vertex="1" parent="WIyWlLk6GJQsqaUBKTNV-1">
          <mxGeometry x="450" y="523.5" width="120" height="60" as="geometry" />
        </mxCell>
        <mxCell id="k1QMkolN6IlTNRxzYxFX-70" value="Ending" style="rounded=1;whiteSpace=wrap;html=1;" vertex="1" parent="WIyWlLk6GJQsqaUBKTNV-1">
          <mxGeometry x="610" y="531.75" width="120" height="43.5" as="geometry" />
        </mxCell>
      </root>
    </mxGraphModel>
  </diagram>
</mxfile>
